<?xml version="1.0" standalone="no"?>
<!DOCTYPE svg PUBLIC "-//W3C//DTD SVG 20010904//EN"
 "http://www.w3.org/TR/2001/REC-SVG-20010904/DTD/svg10.dtd">
<svg version="1.0" xmlns="http://www.w3.org/2000/svg"
 width="986.000000pt" height="253.000000pt" viewBox="0 0 986.000000 253.000000"
 preserveAspectRatio="xMidYMid meet">

<g transform="translate(0.000000,253.000000) scale(0.100000,-0.100000)"
fill="#000000" stroke="none">
<path d="M160 1530 l0 -860 180 0 180 0 0 309 0 310 77 55 77 56 17 -28 c9
-15 91 -146 181 -292 90 -146 184 -298 209 -337 l44 -73 203 0 c111 0 202 2
202 4 0 4 -47 80 -250 401 -31 50 -106 169 -167 265 -60 96 -126 201 -147 232
l-36 58 58 72 c32 40 92 116 134 168 41 52 126 160 189 240 175 221 209 266
209 273 0 4 -89 6 -197 5 l-197 -3 -76 -96 c-41 -52 -145 -183 -230 -290 -86
-107 -187 -238 -225 -293 l-70 -99 -3 392 -2 391 -180 0 -180 0 0 -860z"/>
<path d="M7701 2238 c-4 -13 -27 -75 -51 -138 l-42 -115 -67 -41 c-36 -23 -81
-50 -98 -60 -32 -18 -33 -19 -33 -91 l0 -73 84 0 85 0 3 -382 c3 -370 4 -385
27 -447 40 -114 104 -178 216 -217 76 -27 283 -24 394 5 47 12 88 24 93 27 11
7 10 264 0 264 -5 0 -33 -7 -63 -16 -79 -24 -206 -24 -245 0 -64 38 -64 38
-64 420 l0 346 180 0 180 0 0 130 0 130 -180 0 -180 0 0 140 0 140 -115 0
c-111 0 -116 -1 -124 -22z"/>
<path d="M2179 1999 c-141 -12 -267 -69 -355 -161 -87 -90 -129 -172 -159
-316 -17 -85 -20 -295 -4 -374 49 -249 194 -404 441 -470 70 -19 107 -22 243
-22 170 1 232 11 368 61 l67 25 0 139 0 140 -27 -15 c-43 -22 -172 -63 -233
-75 -213 -40 -357 -12 -437 86 -42 51 -73 129 -73 183 l0 40 421 0 422 0 -6
163 c-3 112 -10 179 -22 217 -86 276 -312 409 -646 379z m189 -260 c76 -29
139 -122 144 -214 l3 -50 -250 0 -250 0 4 44 c6 84 61 174 125 208 58 31 159
36 224 12z"/>
<path d="M5175 1999 c-123 -13 -222 -62 -295 -147 -21 -26 -41 -44 -44 -42 -2
3 -15 41 -28 85 l-25 80 -136 3 -137 3 0 -656 0 -655 178 2 177 3 5 400 c5
381 7 403 28 468 43 126 114 177 250 177 110 0 162 -34 199 -130 15 -40 17
-98 21 -482 l3 -438 175 0 174 0 0 453 c0 466 -5 547 -40 640 -64 171 -258
261 -505 236z"/>
<path d="M6520 2004 c-148 -18 -259 -49 -388 -110 -1 0 24 -55 55 -122 l58
-121 60 26 c86 36 238 73 304 73 43 0 71 -7 112 -27 68 -35 99 -89 99 -174 l0
-57 -107 -6 c-60 -3 -160 -10 -224 -16 -238 -20 -388 -99 -451 -235 -20 -44
-23 -66 -23 -180 0 -120 2 -134 27 -187 73 -157 223 -230 437 -213 142 12 209
42 313 143 32 31 60 53 63 50 3 -3 20 -43 38 -89 l33 -84 122 -3 122 -3 0 469
c0 296 -4 490 -11 528 -30 163 -139 273 -317 319 -62 16 -254 27 -322 19z
m300 -802 c0 -144 -52 -229 -164 -271 -142 -53 -271 -6 -283 103 -12 106 45
191 149 220 83 23 87 24 196 25 l102 1 0 -78z"/>
<path d="M9039 1999 c-249 -21 -428 -173 -501 -424 -20 -69 -23 -103 -23 -245
0 -184 11 -246 67 -360 45 -94 151 -196 248 -242 124 -59 194 -72 370 -72 169
0 264 16 378 61 l62 25 0 138 0 137 -83 -33 c-113 -45 -213 -66 -332 -67 -112
-1 -163 10 -223 51 -73 49 -132 155 -132 239 l0 33 421 0 422 0 -6 168 c-5
193 -22 260 -86 358 -117 179 -312 257 -582 233z m142 -249 c66 -13 121 -48
152 -98 25 -39 47 -113 47 -156 l0 -26 -249 0 c-138 0 -252 3 -254 8 -8 14 22
134 43 168 37 59 101 95 201 113 4 1 30 -4 60 -9z"/>
<path d="M2979 1933 c10 -27 65 -163 121 -303 57 -140 115 -286 130 -325 15
-38 77 -195 139 -347 l111 -277 -25 -66 c-67 -178 -178 -252 -346 -229 l-69
10 0 -137 c0 -121 2 -138 18 -144 9 -4 62 -10 118 -12 184 -10 320 39 434 156
107 111 99 91 431 981 15 41 84 224 152 405 l125 330 -186 3 c-142 2 -187 -1
-194 -10 -4 -7 -26 -69 -48 -138 -22 -69 -80 -248 -130 -397 -74 -226 -109
-356 -110 -406 0 -5 -4 -6 -9 -3 -4 3 -11 36 -15 73 -5 47 -49 194 -142 476
l-136 407 -194 0 -194 0 19 -47z"/>
</g>
</svg>
